<?xml version="1.0" encoding="UTF-8" standalone="no"?>
<!DOCTYPE svg PUBLIC "-//W3C//DTD SVG 1.1//EN" "http://www.w3.org/Graphics/SVG/1.1/DTD/svg11.dtd">
<svg version="1.1" xmlns="http://www.w3.org/2000/svg" xmlns:xlink="http://www.w3.org/1999/xlink" preserveAspectRatio="xMidYMid meet" viewBox="10.306930693069233 9.11494430693071 74.65346534653466 74.65346534653466" width="50" height="50"><defs><path d="M84.96 46.44C84.96 67.04 68.23 83.77 47.63 83.77C27.03 83.77 10.31 67.04 10.31 46.44C10.31 25.84 27.03 9.11 47.63 9.11C68.23 9.11 84.96 25.84 84.96 46.44Z" id="gh8x3dbhk"></path><path d="M47.29 15C45.17 15.33 43.15 16.21 41.47 17.57C39.47 19.18 23.52 32.1 21.53 33.71C19.28 35.53 18 38.22 18 41.1C18 41.46 18.11 41.81 18.3 42.11C18.3 42.11 18.3 42.11 18.3 42.11C18.31 42.12 18.31 42.12 18.31 42.12C18.31 42.12 18.31 42.12 18.31 42.12C19.29 43.6 27.09 55.42 28.07 56.9C28.35 57.33 28.8 57.62 29.31 57.7C29.98 57.82 33.33 58.43 39.36 59.53L39.36 55.91L32.06 54.43L36.72 41.26L32.31 42.73L29.1 51.81L22.67 42.08L47.29 33.88C47.29 23.81 47.29 17.52 47.29 15Z" id="f2lztKwVYU"></path><path d="M74.73 33.71C72.73 32.1 56.78 19.18 54.79 17.57C53.1 16.21 51.08 15.33 48.96 15C48.96 16.26 48.96 22.55 48.96 33.88L73.58 42.08L67.15 51.81L63.94 42.73L59.53 41.26L64.19 54.43L56.89 55.91L56.89 59.53C62.92 58.43 66.27 57.82 66.94 57.7C67.45 57.62 67.9 57.33 68.18 56.9C69.16 55.42 76.97 43.6 77.94 42.12C77.94 42.12 77.94 42.12 77.94 42.12C77.94 42.12 77.94 42.12 77.95 42.11C77.95 42.11 77.95 42.11 77.95 42.11C78.14 41.81 78.25 41.46 78.25 41.1C78.25 38.22 76.97 35.53 74.73 33.71Z" id="d3vWIG2Ke1"></path><path d="M43.24 42.71C43.24 40.02 45.43 37.83 48.13 37.83C50.82 37.83 53.01 40.02 53.01 42.71C53.01 45.4 50.82 47.59 48.13 47.59C45.43 47.59 43.24 45.4 43.24 42.71Z" id="a1aPTVJr95"></path><path d="M57.89 55.89C57.89 54.21 57.89 53.27 57.89 53.08C57.89 50.89 56.6 48.99 54.74 48.11C53.17 50.03 50.79 51.25 48.13 51.25C45.46 51.25 43.08 50.03 41.51 48.11C39.65 48.99 38.36 50.89 38.36 53.08C38.36 53.27 38.36 54.21 38.36 55.89L57.89 55.89Z" id="c3sAjiGlB"></path><path d="M38.36 59.55C38.36 60.06 38.36 60.35 38.36 60.41C38.36 62.79 39.89 64.83 42.02 65.59C42.02 66.41 42.02 73.01 42.02 73.83C42.02 75.86 43.66 77.5 45.68 77.5C46.17 77.5 50.08 77.5 50.57 77.5C52.59 77.5 54.23 75.86 54.23 73.83C54.23 73.01 54.23 66.41 54.23 65.59C56.36 64.83 57.89 62.79 57.89 60.41C57.89 60.35 57.89 60.06 57.89 59.55L38.36 59.55Z" id="c17lcYiqXC"></path></defs><g><g><g><use xlink:href="#gh8x3dbhk" opacity="1" fill="#4f6eea" fill-opacity="1"></use></g><g><use xlink:href="#f2lztKwVYU" opacity="1" fill="#ffffff" fill-opacity="1"></use><g><use xlink:href="#f2lztKwVYU" opacity="1" fill-opacity="0" stroke="#000000" stroke-width="1" stroke-opacity="0"></use></g></g><g><use xlink:href="#d3vWIG2Ke1" opacity="1" fill="#ffffff" fill-opacity="1"></use><g><use xlink:href="#d3vWIG2Ke1" opacity="1" fill-opacity="0" stroke="#ffffff" stroke-width="1" stroke-opacity="0"></use></g></g><g><use xlink:href="#a1aPTVJr95" opacity="1" fill="#ffffff" fill-opacity="1"></use><g><use xlink:href="#a1aPTVJr95" opacity="1" fill-opacity="0" stroke="#000000" stroke-width="1" stroke-opacity="0"></use></g></g><g><use xlink:href="#c3sAjiGlB" opacity="1" fill="#ffffff" fill-opacity="1"></use><g><use xlink:href="#c3sAjiGlB" opacity="1" fill-opacity="0" stroke="#000000" stroke-width="1" stroke-opacity="0"></use></g></g><g><use xlink:href="#c17lcYiqXC" opacity="1" fill="#ffffff" fill-opacity="1"></use><g><use xlink:href="#c17lcYiqXC" opacity="1" fill-opacity="0" stroke="#000000" stroke-width="1" stroke-opacity="0"></use></g></g></g></g></svg>