<?xml version="1.0" encoding="UTF-8" standalone="no"?>
<!DOCTYPE svg PUBLIC "-//W3C//DTD SVG 1.1//EN" "http://www.w3.org/Graphics/SVG/1.1/DTD/svg11.dtd">
<svg version="1.1" xmlns="http://www.w3.org/2000/svg" xmlns:xlink="http://www.w3.org/1999/xlink" preserveAspectRatio="xMidYMid meet" viewBox="16.360644493644486 168.273 46.00000000000048 45.76400000000001" width="100" height="100"><defs><path d="M49.31 207.95L48.23 208.57L47.11 209.13L45.95 209.62L44.75 210.04L43.53 210.4L42.27 210.67L40.99 210.87L39.69 211L38.36 211.04L37.03 211L35.73 210.87L34.45 210.67L33.19 210.4L31.97 210.04L30.77 209.62L29.61 209.13L28.49 208.57L27.41 207.95L26.37 207.27L25.37 206.53L24.42 205.73L23.51 204.88L22.66 203.98L21.87 203.03L21.13 202.03L20.44 200.99L19.82 199.91L19.75 199.76L49.44 207.87L49.31 207.95ZM44.75 170.03L45.95 170.45L47.11 170.94L48.23 171.5L49.31 172.12L50.36 172.8L51.35 173.54L52.3 174.34L53.21 175.19L54.06 176.09L54.86 177.04L55.6 178.04L56.28 179.08L56.9 180.17L57.46 181.29L57.95 182.45L58.37 183.64L58.72 184.87L59 186.12L59.2 187.4L59.32 188.71L59.36 190.04L59.32 191.36L59.2 192.67L59 193.95L58.72 195.21L58.37 196.43L57.95 197.62L57.46 198.78L56.9 199.91L56.28 200.99L55.6 202.03L54.86 203.03L54.06 203.98L53.43 204.65L40.8 194.14L42.48 169.45L43.53 169.68L44.75 170.03ZM18.35 196.43L18 195.21L17.73 193.95L17.52 192.67L17.4 191.36L17.36 190.04L17.4 188.71L17.52 187.4L17.73 186.12L18 184.87L18.35 183.64L18.78 182.45L19.27 181.29L19.82 180.17L20.44 179.08L21.13 178.04L21.87 177.04L22.66 176.09L23.51 175.19L24.42 174.34L25.37 173.54L26.37 172.8L27.41 172.12L28.49 171.5L29.61 170.94L30.77 170.45L31.97 170.03L33.19 169.68L34.45 169.4L35.27 169.27L18.46 196.74L18.35 196.43Z" id="a3Lir9W5aq"></path></defs><g><g><use xlink:href="#a3Lir9W5aq" opacity="1" fill="#444444" fill-opacity="1"></use></g></g></svg>